<svg xmlns="http://www.w3.org/2000/svg" version="1.0" viewBox="0 0 564.003 387.836"><path d="M0 0h45.807v122.153H0zM45.807 82.453h42.754v39.7H45.807zM91.615 0h45.807v122.153H91.615zM140.476 0v122.153h42.753V64.13l79.4 127.116V0h-42.754v58.595L183.23 0h-42.753zM265.683 0v122.153h42.753V73.96l34.07 48.193h51.437l-43.23-60.981L384.782 0h-49.816l-26.53 47.716V0h-42.753z" style="opacity:1;fill:#000;fill-opacity:1;fill-rule:nonzero;stroke:none;stroke-width:2.5;stroke-miterlimit:4;stroke-dasharray:none;stroke-opacity:1"/><path d="M387.836 0h42.754v122.153h-42.754zM433.656 0v122.156h42.75v-57.25l36.625 57.156v.094h42.75V0h-42.75v57.25L476.406.094V0h-42.75zM406.159 125.207v155.745h54.968v-56.019l36.742 56.019h66.134l-51.151-77.873 42.944-77.872h-61.172l-33.497 60.695v-60.695H406.16zM265.683 125.207v155.745h54.969V232.09l82.453 155.745V277.898l-34.451-57.355c16.8-8.294 28.343-25.271 28.343-44.948 0-27.814-23.044-50.388-51.438-50.388-.16 0-.316-.002-.477 0h-79.399zm54.969 39.7h12.215c30.538 21.376 0 30.538 0 30.538h-12.215v-30.538zM0 125.207v155.745h54.969v-43.899h30.538c.223 0 .446.003.668 0 28.35-.386 51.247-25.294 51.247-55.923 0-30.87-23.258-55.923-51.915-55.923-2.08 0-4.094.218-6.108.477v-.477H0zm58.118 42.849h12.025c27.389 15.364-.096 27.198-.096 27.198l-11.738-.096-.19-27.102z" style="opacity:1;fill:#000;fill-opacity:1;fill-rule:nonzero;stroke:none;stroke-width:2.5;stroke-miterlimit:4;stroke-dasharray:none;stroke-opacity:1"/><path d="m186.283 177.122 12.216 45.807h-24.431l12.215-45.807-73.291-51.915 30.538 33.592v6.108l-42.754 116.045h61.077l6.107-21.377h36.646l6.108 21.377h54.969v-24.43l-48.861-131.315h-103.83" style="opacity:1;fill:#000;fill-opacity:1;fill-rule:evenodd;stroke:none;stroke-width:1px;stroke-linecap:butt;stroke-linejoin:miter;stroke-opacity:1"/></svg>